<svg width="199" height="25" viewBox="0 0 199 25" fill="none" xmlns="http://www.w3.org/2000/svg">
<path d="M0.335632 20.1418L6.97723 1.07051H10.9782L17.6998 20.1418H13.6722L12.3919 16.0874H5.51021L4.25657 20.1418H0.335632ZM8.12417 7.63208L6.41709 13.1267H11.4583L9.75122 7.63208L8.97771 4.69804H8.92436C8.60428 5.97835 8.33755 6.95636 8.12417 7.63208Z" fill="white"/>
<path d="M24.5187 24.8095C22.6694 24.8095 21.1846 24.4361 20.0643 23.6893C18.9618 22.9424 18.3128 21.8933 18.1172 20.5418H21.7181C22.0737 21.5554 22.9895 22.0622 24.4654 22.0622C26.4925 22.0622 27.5061 21.1109 27.5061 19.2082V17.7145H27.4261C26.4836 18.7814 25.2922 19.3149 23.8519 19.3149C22.2337 19.3149 20.8201 18.7192 19.6109 17.5278C18.4195 16.3364 17.8238 14.7538 17.8238 12.78C17.8238 10.7528 18.375 9.13466 19.4775 7.92548C20.58 6.69852 22.0026 6.08504 23.7452 6.08504C25.3989 6.08504 26.6615 6.68963 27.5328 7.89881H27.5861V6.45847H31.0803V19.1015C31.0803 20.8797 30.538 22.2667 29.4532 23.2625C28.3508 24.2939 26.7059 24.8095 24.5187 24.8095ZM24.4654 16.4075C25.5501 16.4075 26.3592 16.0608 26.8926 15.3673C27.4261 14.6738 27.6928 13.7847 27.6928 12.7C27.6928 11.633 27.4083 10.7528 26.8393 10.0593C26.288 9.34805 25.4879 8.99241 24.4387 8.99241C23.514 8.99241 22.7672 9.33027 22.1982 10.006C21.6469 10.6817 21.3713 11.5886 21.3713 12.7266C21.3713 13.8825 21.6469 14.7894 22.1982 15.4473C22.7672 16.0874 23.5229 16.4075 24.4654 16.4075Z" fill="white"/>
<path d="M39.8443 20.5418C37.6393 20.5418 35.9056 19.8661 34.643 18.5147C33.3805 17.1455 32.7492 15.4028 32.7492 13.2868C32.7492 11.2418 33.3805 9.53476 34.643 8.16554C35.9056 6.77854 37.5237 6.08504 39.4975 6.08504C41.6492 6.08504 43.3118 6.83189 44.4854 8.32558C45.659 9.81927 46.2458 11.8198 46.2458 14.327H36.3234C36.4657 15.4117 36.8302 16.2564 37.417 16.861C38.0038 17.4478 38.804 17.7412 39.8176 17.7412C41.1513 17.7412 42.0315 17.181 42.4582 16.0608H46.0324C45.7657 17.3411 45.09 18.408 44.0053 19.2615C42.9206 20.1151 41.5336 20.5418 39.8443 20.5418ZM39.5509 8.88571C37.7905 8.88571 36.7324 9.86373 36.3768 11.8198H42.4582C42.4049 10.9484 42.1115 10.246 41.578 9.71258C41.0446 9.16134 40.3689 8.88571 39.5509 8.88571Z" fill="white"/>
<path d="M51.4723 6.45847V8.32558H51.5523C52.4947 6.83189 53.8462 6.08504 55.6066 6.08504C57.0114 6.08504 58.1494 6.56516 59.0208 7.52539C59.8921 8.46784 60.3277 9.6948 60.3277 11.2063V20.1418H56.7002V11.7397C56.7002 10.9929 56.4868 10.3883 56.06 9.92596C55.6511 9.46363 55.0731 9.23246 54.3263 9.23246C53.5261 9.23246 52.8593 9.52587 52.3258 10.1127C51.8101 10.6995 51.5523 11.4552 51.5523 12.3799V20.1418H47.9248V6.45847H51.4723Z" fill="white"/>
<path d="M67.6849 20.5418C65.9601 20.5418 64.5642 19.8928 63.4972 18.5947C62.4303 17.2788 61.8969 15.5184 61.8969 13.3134C61.8969 11.1796 62.4392 9.44585 63.5239 8.1122C64.6264 6.76076 66.0312 6.08504 67.7383 6.08504C69.4453 6.08504 70.7345 6.76076 71.6059 8.1122H71.6859V1.07051H75.3134V20.1418H71.8192V18.3547H71.7659C70.8768 19.8128 69.5165 20.5418 67.6849 20.5418ZM68.4851 17.5011C69.552 17.5011 70.3611 17.1366 70.9124 16.4075C71.4814 15.6785 71.7659 14.6738 71.7659 13.3935C71.7659 10.4772 70.7079 9.01908 68.5918 9.01908C67.6138 9.01908 66.8669 9.41028 66.3513 10.1927C65.8356 10.9751 65.5777 12.0154 65.5777 13.3134C65.5777 14.6471 65.8267 15.6785 66.3246 16.4075C66.8403 17.1366 67.5604 17.5011 68.4851 17.5011Z" fill="white"/>
<path d="M86.2869 20.1418C86.1091 19.9106 85.9668 19.4038 85.8601 18.6214H85.8068C85.4156 19.2082 84.9177 19.6616 84.3131 19.9817C83.7085 20.3018 82.8638 20.4618 81.7791 20.4618C80.3388 20.4618 79.183 20.0973 78.3116 19.3682C77.4403 18.6392 77.0047 17.6078 77.0047 16.2742C77.0047 14.8872 77.4848 13.8736 78.445 13.2334C79.4052 12.5755 80.7567 12.122 82.4993 11.8731C83.7796 11.6953 84.6509 11.5175 85.1133 11.3396C85.5756 11.144 85.8068 10.8062 85.8068 10.3261C85.8068 9.82816 85.6112 9.43696 85.22 9.15244C84.8288 8.85015 84.2597 8.699 83.5129 8.699C81.8592 8.699 80.9789 9.33916 80.8723 10.6195H77.6448C77.6982 9.32137 78.2227 8.24556 79.2185 7.39202C80.2143 6.53848 81.6547 6.11172 83.5396 6.11172C87.3805 6.11172 89.3009 7.79212 89.3009 11.1529V18.1146C89.3009 19.146 89.461 19.7772 89.7811 20.0084V20.1418H86.2869ZM82.6593 17.9279C83.6551 17.9279 84.4376 17.67 85.0066 17.1544C85.5934 16.6387 85.8868 16.0252 85.8868 15.3139V13.2601C85.4956 13.4913 84.6509 13.758 83.3529 14.0603C82.3215 14.2915 81.5924 14.5582 81.1657 14.8605C80.7389 15.145 80.5255 15.5895 80.5255 16.1941C80.5255 17.35 81.2368 17.9279 82.6593 17.9279Z" fill="white"/>
<path d="M104.729 20.5418C102.044 20.5418 99.8394 19.6172 98.1145 17.7678C96.4074 15.9007 95.5539 13.5357 95.5539 10.6728C95.5539 7.79212 96.3897 5.40932 98.0612 3.52443C99.7327 1.63953 101.947 0.697083 104.703 0.697083C106.979 0.697083 108.802 1.30167 110.171 2.51085C111.558 3.70225 112.358 5.24039 112.571 7.12529H108.73C108.553 6.14728 108.108 5.37376 107.397 4.80473C106.703 4.23571 105.805 3.9512 104.703 3.9512C103.013 3.9512 101.724 4.57357 100.835 5.81831C99.9461 7.06306 99.5015 8.68122 99.5015 10.6728C99.5015 12.6466 99.9727 14.2559 100.915 15.5006C101.875 16.7454 103.147 17.3678 104.729 17.3678C105.85 17.3678 106.783 17.0655 107.53 16.4609C108.277 15.8385 108.713 15.0205 108.837 14.0069H112.625C112.518 15.8029 111.816 17.3055 110.517 18.5147C109.077 19.8661 107.148 20.5418 104.729 20.5418Z" fill="white"/>
<path d="M126.081 18.488C124.747 19.8572 123.031 20.5418 120.933 20.5418C118.834 20.5418 117.118 19.8572 115.785 18.488C114.451 17.101 113.784 15.3762 113.784 13.3134C113.784 11.2507 114.451 9.53476 115.785 8.16554C117.118 6.77854 118.834 6.08504 120.933 6.08504C123.031 6.08504 124.747 6.77854 126.081 8.16554C127.414 9.53476 128.081 11.2507 128.081 13.3134C128.081 15.3762 127.414 17.101 126.081 18.488ZM120.933 17.7678C122.017 17.7678 122.862 17.3678 123.467 16.5676C124.089 15.7496 124.4 14.6649 124.4 13.3134C124.4 11.962 124.089 10.8773 123.467 10.0593C122.862 9.24136 122.017 8.83237 120.933 8.83237C119.83 8.83237 118.977 9.24136 118.372 10.0593C117.767 10.8595 117.465 11.9442 117.465 13.3134C117.465 14.6649 117.767 15.7496 118.372 16.5676C118.977 17.3678 119.83 17.7678 120.933 17.7678Z" fill="white"/>
<path d="M133.315 6.45847V8.32558H133.395C134.337 6.83189 135.689 6.08504 137.449 6.08504C138.854 6.08504 139.992 6.56516 140.863 7.52539C141.735 8.46784 142.17 9.6948 142.17 11.2063V20.1418H138.543V11.7397C138.543 10.9929 138.329 10.3883 137.903 9.92596C137.494 9.46363 136.916 9.23246 136.169 9.23246C135.369 9.23246 134.702 9.52587 134.168 10.1127C133.653 10.6995 133.395 11.4552 133.395 12.3799V20.1418H129.767V6.45847H133.315Z" fill="white"/>
<path d="M149.954 20.5418C147.998 20.5418 146.469 20.1151 145.366 19.2615C144.264 18.3902 143.659 17.2077 143.553 15.714H146.914C147.145 17.2255 148.14 17.9812 149.901 17.9812C150.701 17.9812 151.315 17.839 151.741 17.5545C152.186 17.27 152.408 16.8876 152.408 16.4075C152.408 16.2297 152.373 16.0697 152.301 15.9274C152.248 15.7851 152.141 15.6607 151.981 15.554C151.839 15.4295 151.706 15.3317 151.581 15.2606C151.475 15.1895 151.279 15.1183 150.994 15.0472C150.71 14.9761 150.488 14.9227 150.328 14.8872C150.185 14.8516 149.928 14.8071 149.554 14.7538C149.199 14.6827 148.95 14.6293 148.807 14.5938C148.06 14.4515 147.447 14.3092 146.967 14.167C146.505 14.0069 146.016 13.7847 145.5 13.5002C144.984 13.1979 144.593 12.7978 144.326 12.2999C144.077 11.7842 143.953 11.1707 143.953 10.4594C143.953 9.03686 144.468 7.95216 145.5 7.20531C146.549 6.45847 147.892 6.08504 149.527 6.08504C151.288 6.08504 152.666 6.49403 153.662 7.312C154.675 8.1122 155.253 9.21468 155.396 10.6195H152.115C151.973 9.28581 151.092 8.61898 149.474 8.61898C148.745 8.61898 148.167 8.75235 147.74 9.01908C147.331 9.28581 147.127 9.65923 147.127 10.1393C147.127 10.2994 147.154 10.4505 147.207 10.5928C147.278 10.7173 147.385 10.8328 147.527 10.9395C147.687 11.0285 147.838 11.1085 147.98 11.1796C148.123 11.2329 148.327 11.2952 148.594 11.3663C148.861 11.4197 149.092 11.473 149.287 11.5263C149.483 11.5619 149.75 11.6153 150.088 11.6864C150.425 11.7397 150.692 11.7842 150.888 11.8198C151.457 11.9442 151.919 12.0598 152.275 12.1665C152.648 12.2554 153.075 12.4155 153.555 12.6466C154.035 12.86 154.409 13.1089 154.675 13.3935C154.96 13.6602 155.2 14.0336 155.396 14.5137C155.609 14.9761 155.716 15.5184 155.716 16.1408C155.716 17.4922 155.182 18.568 154.115 19.3682C153.066 20.1506 151.679 20.5418 149.954 20.5418Z" fill="white"/>
<path d="M169.488 20.1418H165.994V18.5414H165.914C165.416 19.2171 164.865 19.715 164.26 20.0351C163.674 20.3551 162.918 20.5152 161.993 20.5152C160.499 20.5152 159.335 20.0706 158.499 19.1815C157.663 18.2924 157.245 17.0921 157.245 15.5807V6.45847H160.846V14.9672C160.846 16.6209 161.602 17.4478 163.113 17.4478C163.949 17.4478 164.616 17.1633 165.114 16.5942C165.612 16.0252 165.861 15.2784 165.861 14.3537V6.45847H169.488V20.1418Z" fill="white"/>
<path d="M171.888 20.1418V1.07051H175.516V20.1418H171.888Z" fill="white"/>
<path d="M177.104 8.85904V6.45847H178.997V2.19077H182.545V6.45847H184.892V8.85904H182.545V16.1141C182.545 17.021 182.998 17.4744 183.905 17.4744L184.972 17.4478V20.1151C184.421 20.1506 183.665 20.1684 182.705 20.1684C181.656 20.1684 180.776 19.9195 180.064 19.4216C179.353 18.9059 178.997 18.0612 178.997 16.8876V8.85904H177.104Z" fill="white"/>
<path d="M195.506 20.1418C195.328 19.9106 195.186 19.4038 195.079 18.6214H195.026C194.634 19.2082 194.137 19.6616 193.532 19.9817C192.927 20.3018 192.083 20.4618 190.998 20.4618C189.558 20.4618 188.402 20.0973 187.531 19.3682C186.659 18.6392 186.224 17.6078 186.224 16.2742C186.224 14.8872 186.704 13.8736 187.664 13.2334C188.624 12.5755 189.976 12.122 191.718 11.8731C192.999 11.6953 193.87 11.5175 194.332 11.3396C194.795 11.144 195.026 10.8062 195.026 10.3261C195.026 9.82816 194.83 9.43696 194.439 9.15244C194.048 8.85015 193.479 8.699 192.732 8.699C191.078 8.699 190.198 9.33916 190.091 10.6195H186.864C186.917 9.32137 187.442 8.24556 188.437 7.39202C189.433 6.53848 190.874 6.11172 192.758 6.11172C196.599 6.11172 198.52 7.79212 198.52 11.1529V18.1146C198.52 19.146 198.68 19.7772 199 20.0084V20.1418H195.506ZM191.878 17.9279C192.874 17.9279 193.656 17.67 194.225 17.1544C194.812 16.6387 195.106 16.0252 195.106 15.3139V13.2601C194.714 13.4913 193.87 13.758 192.572 14.0603C191.54 14.2915 190.811 14.5582 190.385 14.8605C189.958 15.145 189.744 15.5895 189.744 16.1941C189.744 17.35 190.456 17.9279 191.878 17.9279Z" fill="white"/>
</svg>
